<svg id="Layer_1" data-name="Layer 1" xmlns="http://www.w3.org/2000/svg" viewBox="0 0 100 100"><path d="M0,0H100a0,0,0,0,1,0,0V100a0,0,0,0,1,0,0H41.9783A41.9783,41.9783,0,0,1,0,58.0217V0A0,0,0,0,1,0,0Z" style="fill:#51ab98"/><path d="M17.41,20.6955a6.9306,6.9306,0,0,0,12.6465,5.6091" style="fill:none;stroke:#009fe3;stroke-miterlimit:10;stroke-width:4px"/><path d="M23.29,42.81a3.7122,3.7122,0,0,1-4.8985,1.8883h0A3.7122,3.7122,0,0,1,16.5034,39.8l4.5849-10.3371" style="fill:none;stroke:#009fe3;stroke-miterlimit:10;stroke-width:3px"/><path d="M34.6532,35.503a3.7122,3.7122,0,0,0-1.8883-4.8985h0a3.7122,3.7122,0,0,0-4.8985,1.8884L23.2815,42.83" style="fill:none;stroke:#009fe3;stroke-miterlimit:10;stroke-width:2px"/><circle cx="34.3408" cy="37.2659" r="2.06" style="fill:none;stroke:#009fe3;stroke-miterlimit:10"/><path d="M17.293,20.9254l2.5158-5.6722a1.37,1.37,0,0,1,1.8072-.6967" style="fill:none;stroke:#009fe3;stroke-miterlimit:10;stroke-width:2px"/><path d="M29.9643,26.5455,32.48,20.8734a1.37,1.37,0,0,0-.6966-1.8073" style="fill:none;stroke:#009fe3;stroke-miterlimit:10;stroke-width:2px"/><circle cx="22.5108" cy="14.9299" r="1.2446" style="fill:#009fe3"/><circle cx="30.9845" cy="18.6883" r="1.2446" style="fill:#009fe3"/><circle cx="34.3299" cy="37.2376" r="0.8369" style="fill:#009fe3"/><path d="M60.4256,56.9791v-.1216a9.8867,9.8867,0,0,0-9.8867-9.8867h0a9.8867,9.8867,0,0,0-9.8867,9.8867v.1216Z" style="fill:#312783"/><circle cx="50.3118" cy="40.6945" r="5.0644" style="fill:#312783"/><rect x="40.2289" y="14.1087" width="33.2502" height="4.6957" rx="2.3478" transform="translate(-1.7131 25.0059) rotate(-24.4483)" style="fill:#fff"/><rect x="43.0255" y="21.1781" width="2.1522" height="2.1522" rx="1.0761" transform="translate(-5.256 20.2479) rotate(-24.4483)" style="fill:#c6c6c6"/><rect x="46.11" y="19.7758" width="2.1522" height="2.1522" rx="1.0761" transform="translate(-4.3991 21.3987) rotate(-24.4483)" style="fill:#c6c6c6"/><rect x="49.2585" y="18.3444" width="2.1522" height="2.1522" rx="1.0761" transform="translate(-3.5243 22.5734) rotate(-24.4483)" style="fill:#c6c6c6"/><rect x="52.3282" y="16.9488" width="2.1522" height="2.1522" rx="1.0761" transform="translate(-2.6715 23.7187) rotate(-24.4483)" style="fill:#c6c6c6"/><rect x="55.1583" y="15.6621" width="2.1522" height="2.1522" rx="1.0761" transform="translate(-1.8852 24.7747) rotate(-24.4483)" style="fill:#c6c6c6"/><rect x="58.069" y="14.3041" width="2.1522" height="2.1522" rx="1.0761" transform="translate(-1.0622 25.8576) rotate(-24.4483)" style="fill:#c6c6c6"/><rect x="60.8586" y="13.0358" width="2.1522" height="2.1522" rx="1.0761" transform="translate(-0.2871 26.8984) rotate(-24.4483)" style="fill:#c6c6c6"/><path d="M33,67.7866l-2.1535-3.98A3.8285,3.8285,0,0,0,24.1117,67.45l2.1536,3.98Z" style="fill:#e6332a"/><path d="M26.2653,71.43l2.9385,5.4309a3.8285,3.8285,0,0,0,6.7344-3.6438L33,67.7866Z" style="fill:#fff"/><rect x="73.4229" y="28.4042" width="18.8021" height="27.9845" rx="2.087" transform="translate(8.9085 -14.117) rotate(10.2931)" style="fill:#575756"/><rect x="74.354" y="29.2177" width="16.8054" height="25.0849" rx="2.087" transform="translate(8.7937 -14.1152) rotate(10.2931)" style="fill:#fff"/><polyline points="77.33 37.258 81.423 38.001 82.658 35.857 83.687 41.372 86.105 38.767 89.789 39.436" style="fill:none;stroke:#e30613;stroke-miterlimit:10"/><line x1="76.0432" y1="44.0693" x2="88.4065" y2="46.3146" style="fill:none;stroke:#dadada;stroke-miterlimit:10"/><line x1="78.2471" y1="31.9336" x2="83.4048" y2="32.8702" style="fill:none;stroke:#dadada;stroke-miterlimit:10"/><line x1="75.6208" y1="46.3953" x2="87.9841" y2="48.6406" style="fill:none;stroke:#dadada;stroke-miterlimit:10"/><line x1="75.1983" y1="48.7213" x2="87.5616" y2="50.9666" style="fill:none;stroke:#dadada;stroke-miterlimit:10"/><line x1="74.7759" y1="51.0474" x2="81.9815" y2="52.3559" style="fill:none;stroke:#dadada;stroke-miterlimit:10"/><path d="M81.1927,28.7285a1.5032,1.5032,0,0,0,1.21,1.7476l4.6267.84a1.5033,1.5033,0,0,0,1.7477-1.21" style="fill:none;stroke:#cedaf1;stroke-miterlimit:10"/><path d="M88.74,30.3134a1.5033,1.5033,0,0,0-1.2105-1.7477l-4.6267-.84a1.5033,1.5033,0,0,0-1.7477,1.21" style="fill:none;stroke:#cedaf1;stroke-miterlimit:10"/><rect x="50.4839" y="72.4875" width="2.0804" height="8.5817" transform="translate(101.586 -0.9614) rotate(66.6448)" style="fill:#fff"/><path d="M64.0708,55.36h4.4969a1.3576,1.3576,0,0,1,1.3576,1.3576V83.17a2.25,2.25,0,0,1-2.25,2.25H64.9632a2.25,2.25,0,0,1-2.25-2.25V56.7174A1.3576,1.3576,0,0,1,64.0708,55.36Z" transform="translate(104.6506 -18.4002) rotate(66.6448)" style="fill:#fff"/><path d="M45.479,77.0975h2.4271a0,0,0,0,1,0,0v2.7773a.7572.7572,0,0,1-.7572.7572h-.9127a.7572.7572,0,0,1-.7572-.7572V77.0975a0,0,0,0,1,0,0Z" transform="translate(100.5851 4.7336) rotate(66.6448)" style="fill:#b2b2b2"/><path d="M78.43,66.4748l-.9568-2.2158a2.0275,2.0275,0,0,0-2.7252-.8229L54.9111,72.0017a2.5385,2.5385,0,0,0-1.3242,3.3368l.4.9257a2.5384,2.5384,0,0,0,3.3368,1.3241L77.16,69.0227A2.0275,2.0275,0,0,0,78.43,66.4748Z" style="fill:#dadada"/><rect x="59.7663" y="59.9812" width="1.0055" height="26.042" transform="translate(103.3974 -11.269) rotate(66.6448)" style="fill:#e73c1e"/><circle cx="72.5097" cy="67.7166" r="1.0402" style="fill:#be1622"/><line x1="75.2916" y1="69.8295" x2="74.7658" y2="68.6119" style="fill:none;stroke:#1d1e1b;stroke-miterlimit:10;stroke-width:0.5px"/><line x1="67.1935" y1="73.3263" x2="66.6677" y2="72.1087" style="fill:none;stroke:#1d1e1b;stroke-miterlimit:10;stroke-width:0.5px"/><line x1="62.9342" y1="75.1655" x2="62.4085" y2="73.9479" style="fill:none;stroke:#1d1e1b;stroke-miterlimit:10;stroke-width:0.5px"/><line x1="71.2425" y1="71.5779" x2="70.7167" y2="70.3603" style="fill:none;stroke:#1d1e1b;stroke-miterlimit:10;stroke-width:0.5px"/><line x1="58.675" y1="77.0047" x2="58.1493" y2="75.7871" style="fill:none;stroke:#1d1e1b;stroke-miterlimit:10;stroke-width:0.5px"/><circle cx="11.7476" cy="10.5737" r="4.3563" style="fill:#dedc00"/><circle cx="13.3976" cy="60.8887" r="7.8683" style="fill:#00a19a"/><circle cx="58.6732" cy="90.3344" r="3.9982" style="fill:#f9b233"/><circle cx="84.1773" cy="82.8668" r="10.0856" style="fill:#1d71b8"/><circle cx="84.9729" cy="13.6851" r="6.0358" style="fill:#2fac66"/><circle cx="41.3329" cy="6.2174" r="2.0931" style="fill:#cbbba0"/></svg>