<svg id="Layer_1" data-name="Layer 1" xmlns="http://www.w3.org/2000/svg" viewBox="0 0 91.7562 55.258"><path d="M4.62,27.3545a61.2594,61.2594,0,0,1,10.1519-.791c5.2285,0,9.0581,1.2158,11.49,3.4043A11.0161,11.0161,0,0,1,29.8481,38.54a12.06,12.06,0,0,1-3.1611,8.7539c-2.7959,2.9786-7.3555,4.4981-12.5224,4.4981a18.17,18.17,0,0,1-4.2559-.3652v16.414H4.62ZM9.9087,47.1113a17.75,17.75,0,0,0,4.3769.4258c6.3833,0,10.274-3.1006,10.274-8.7539,0-5.4111-3.83-8.0244-9.6656-8.0244a22.207,22.207,0,0,0-4.9853.4248Z" transform="translate(-4.5964 -26.5635)" style="fill:#2c6777"/><path d="M4.5964,67.733h20.48a1.267,1.267,0,0,0,1.1057-.7593l5.2743-10.5575a.0875.0875,0,0,1,.1659.0092l5.9855,22.8313a.0878.0878,0,0,0,.1677.0054L42.93,61.7807a.0863.0863,0,0,1,.1571-.0153L45.74,67.1305a1.2259,1.2259,0,0,0,1.0162.6022l34.5265,0" transform="translate(-4.5964 -26.5635)" style="fill:none;stroke:#51ab98;stroke-miterlimit:10;stroke-width:5px"/><path d="M39.3481,53.0088,39.17,51.4619h-.0762a4.5707,4.5707,0,0,1-3.7529,1.8262,3.4971,3.4971,0,0,1-3.7534-3.5249c0-2.9673,2.6372-4.59,7.38-4.565v-.2534a2.5305,2.5305,0,0,0-2.79-2.84,6.1142,6.1142,0,0,0-3.1953.9131l-.5068-1.4712a7.6183,7.6183,0,0,1,4.0322-1.09c3.7529,0,4.666,2.5615,4.666,5.0214v4.59a17.2543,17.2543,0,0,0,.2032,2.9409Zm-.33-6.2637c-2.4346-.05-5.1993.38-5.1993,2.7642a1.9747,1.9747,0,0,0,2.105,2.13,3.0536,3.0536,0,0,0,2.9673-2.0542,2.32,2.32,0,0,0,.127-.71Z" transform="translate(-4.5964 -26.5635)" style="fill:#2c6777"/><path d="M46.0166,47.2778c.0508,3.0176,1.9785,4.26,4.21,4.26a8.0893,8.0893,0,0,0,3.3984-.6333l.38,1.5972a9.9513,9.9513,0,0,1-4.083.7607c-3.7783,0-6.0352-2.4849-6.0352-6.1875s2.1807-6.6191,5.7569-6.6191c4.0068,0,5.0712,3.5249,5.0712,5.7822a8.4368,8.4368,0,0,1-.0752,1.0395ZM52.56,45.68c.0254-1.42-.583-3.6265-3.0938-3.6265-2.2568,0-3.2461,2.08-3.4238,3.6265Z" transform="translate(-4.5964 -26.5635)" style="fill:#2c6777"/><path d="M68.0537,40.7349c-.0508.8877-.1016,1.8769-.1016,3.373v7.1255c0,2.8154-.5585,4.54-1.75,5.6045a6.5052,6.5052,0,0,1-4.4638,1.4707,7.9246,7.9246,0,0,1-4.083-1.0137l.5586-1.6992a6.9233,6.9233,0,0,0,3.6006.9639c2.2832,0,3.956-1.1924,3.956-4.2862V50.9048h-.05a4.3853,4.3853,0,0,1-3.9062,2.0532c-3.043,0-5.2237-2.5864-5.2237-5.9844,0-4.1591,2.7129-6.5175,5.5283-6.5175a4.0817,4.0817,0,0,1,3.8291,2.13h.0508l.1016-1.8515Zm-2.3076,4.8437a3.1712,3.1712,0,0,0-.127-1.0141A3.2147,3.2147,0,0,0,62.5,42.2061c-2.1309,0-3.6523,1.8-3.6523,4.6406,0,2.41,1.2177,4.4121,3.6269,4.4121a3.2628,3.2628,0,0,0,3.0938-2.2817,3.8833,3.8833,0,0,0,.1777-1.1924Z" transform="translate(-4.5964 -26.5635)" style="fill:#2c6777"/><path d="M72.8955,47.2778c.0508,3.0176,1.9785,4.26,4.21,4.26a8.0893,8.0893,0,0,0,3.3984-.6333l.38,1.5972a9.9513,9.9513,0,0,1-4.083.7607c-3.7783,0-6.0352-2.4849-6.0352-6.1875s2.1807-6.6191,5.7569-6.6191c4.0068,0,5.0713,3.5249,5.0713,5.7822a8.4569,8.4569,0,0,1-.0752,1.0395Zm6.543-1.5976c.0254-1.42-.583-3.6265-3.0938-3.6265-2.2568,0-3.2461,2.08-3.4238,3.6265Z" transform="translate(-4.5964 -26.5635)" style="fill:#2c6777"/><path d="M93.791,53.0088,91.61,49.231c-.8877-1.4463-1.4454-2.3843-1.9786-3.3731h-.0507c-.4815.9888-.9639,1.9014-1.8506,3.3984l-2.0547,3.7525H83.14l5.2247-8.6475-5.0215-8.4448h2.5615l2.2568,4.0068c.6338,1.1163,1.1162,1.9781,1.5723,2.8912H89.81c.4814-1.0142.9131-1.8,1.5468-2.8912L93.69,35.9165h2.5361l-5.1992,8.3184,5.3261,8.7739Z" transform="translate(-4.5964 -26.5635)" style="fill:#51ab98"/></svg>